PathFileType	4	(X/Y/Z)	Patient4_TMGait_0pt6_01_right_14.trc.trc
DataRate	CameraRate	NumFrames	NumMarkers	Units	OrigDataRate	OrigDataStartFrame	OrigNumFrames
83.333333333333	83.333333333333	4	33	mm	83.333333333333	36	       141
Frame#	Time	Sacral			L.Shoulder			Chest			R.Shoulder			Neck			R.ASIS			L.ASIS			R.Thigh.Superior			R.Thigh.Lateral			R.Thigh.Inferior			R.Patella			L.Thigh.Superior			L.Thigh.Lateral			L.Thigh.Inferior			L.Patella			L.Shank.Superior			L.Shank.Lateral			L.Shank.Inferior			R.Shank.Superior			R.Shank.Lateral			R.Shank.Inferior			R.Heel			R.Midfoot.Superior			R.Midfoot.Lateral			R.Toe			L.Heel			L.Midfoot.Lateral			L.Midfoot.Superior			L.Toe			L.Elbow			L.Wrist			R.Elbow			R.Wrist			
		X1	Y1	Z1	X2	Y2	Z2	X3	Y3	Z3	X4	Y4	Z4	X5	Y5	Z5	X6	Y6	Z6	X7	Y7	Z7	X8	Y8	Z8	X9	Y9	Z9	X10	Y10	Z10	X11	Y11	Z11	X12	Y12	Z12	X13	Y13	Z13	X14	Y14	Z14	X15	Y15	Z15	X16	Y16	Z16	X17	Y17	Z17	X18	Y18	Z18	X19	Y19	Z19	X20	Y20	Z20	X21	Y21	Z21	X22	Y22	Z22	X23	Y23	Z23	X24	Y24	Z24	X25	Y25	Z25	X26	Y26	Z26	X27	Y27	Z27	X28	Y28	Z28	X29	Y29	Z29	X30	Y30	Z30	X31	Y31	Z31	X32	Y32	Z32	X33	Y33	Z33	

36	16.850000000000	662.470308253393	998.828137245219	477.487184182047	821.924897459273	1439.234586086067	311.802091009840	928.585975322279	1366.650231741873	468.277013795132	842.971809887943	1425.452919571804	645.536443969976	799.500461319783	1491.383990615871	467.013830259895	891.800796648312	942.231854745960	593.445604216924	874.756895536805	959.092080847258	318.706269894127	945.896335311977	746.852879132698	563.958418940763	873.499078066671	633.243572786566	622.234397745509	952.919164815443	587.089763258718	540.496709964346	959.181391615859	499.347437248863	545.446892350379	920.371511822152	738.189454929749	346.482584333871	835.888901768111	621.347121679792	283.034416551514	923.880768923273	538.644523913850	340.608618117148	916.385688658117	452.034464597858	338.913899774276	846.260985464355	394.096749235715	336.762975013717	704.006123812097	352.672438983707	292.517688814092	687.746652079448	227.841523093242	353.823866600909	937.975746375238	409.432910966318	552.593650555971	874.398066376980	300.331945387208	613.108627440195	923.418990865382	209.461379614479	548.875939121977	799.644370374463	41.312102294354	514.278072049598	968.832715049296	97.000631577138	553.621290960014	881.391455426306	36.125255584283	590.932714833885	1089.259227002380	46.252457774866	583.695836499602	496.424136172761	165.109406405843	398.898033855675	551.857165152456	122.614451720047	316.226563804974	656.307727827446	130.125288806603	334.815776388006	733.256124492547	30.920541131696	302.731589961123	859.256828312547	1091.326699128256	180.023849311949	1066.525569627830	931.721972556473	179.813566305359	820.821476918590	1068.911508528561	744.342212527931	917.171582947388	826.248929199570	747.135500845475	
37	16.862000000000	661.931764563011	999.480172697258	480.234538787427	819.843774185138	1439.795643470761	313.509147696120	927.669746208342	1367.558227657258	469.348788385918	843.182146245468	1426.286388645646	647.182729048550	798.432461648405	1492.084822827006	468.775631337013	891.735515226112	943.163875419389	595.334909289848	873.993529493028	959.546794196271	320.474547569258	943.874097653821	746.305151790952	566.628823440052	869.801332164526	633.321257048738	624.161937140199	948.828659969561	586.487780582730	542.461333751102	954.030836153290	498.918186422877	546.876533864694	924.597931847457	741.626185138485	348.955208434550	844.762088067128	622.859116104809	283.985774972914	935.212848554519	542.250531680426	341.580244265274	929.217315884973	454.565423835168	339.225292814446	857.738993014839	396.509491085184	337.169728350174	713.989321009471	359.265863236365	293.462313442007	694.638892545734	234.696964450952	354.473148556954	932.505490025944	409.157200563352	553.772624506026	868.519314741430	300.201921002400	613.928158445311	917.025814027928	209.285220098786	549.407931709770	792.610916468644	41.362513817926	514.468894057336	961.878761735925	97.024330342288	553.894083252429	874.333604207454	36.109763624780	591.078633607623	1082.220999981170	46.113523211863	583.913672160915	501.453630194527	179.923132740653	400.073786549599	554.671873023830	134.612065950985	317.179918701828	659.878464025116	136.534326260694	335.541623438010	731.123519386937	31.114121382325	303.103589528095	853.318850795122	1090.260699090305	184.397565563309	1051.773062184918	919.416635305287	182.434862023560	831.230809068235	1069.125035178178	747.029874712122	939.816420705604	831.587564164048	748.080749643055	
38	16.874000000000	661.258823783005	1000.156135113892	482.899377601043	817.720492650862	1440.221307953686	315.013465772664	926.703320575369	1368.433520485281	470.254190607859	843.363356870596	1427.195065922303	648.645265297412	797.326477589690	1492.757194888742	470.296061904610	891.454763978343	943.971539621843	597.177406529625	873.091173334149	959.989288570732	322.237113517424	941.716477349378	745.751921777626	569.217093226845	865.928626693373	633.376149455560	625.976539763723	944.614518675261	585.898041062828	544.364048713002	948.762634996015	498.496071603981	548.238028021736	928.455471703752	745.297051268081	351.355240718850	853.174993923431	624.870540691049	284.839146922530	945.917742094536	546.415660209884	342.539652762091	941.600276471519	457.781392324429	339.602544378657	869.092172400726	399.435155849524	337.582454065336	724.155732544797	365.667227954256	294.376906056225	702.306781757147	241.313947390609	355.131096203733	926.923842986266	408.874443500733	554.861662013707	862.496458526681	300.074168667192	614.660116258096	910.506310051572	209.099658793139	549.886378149993	785.430630618365	41.426983486257	514.642160336069	954.812084118618	97.005028468899	554.151852686350	867.125277258185	36.082750954046	591.208104245170	1075.048011260506	45.884625618479	584.115543762776	507.769102702779	193.084224238616	401.213306817607	559.117229078984	145.509797495281	318.128810719559	664.826144419528	142.847836687315	336.294604591005	731.267335189939	31.901885639166	303.498834133556	847.239198695464	1089.076911474555	188.663424939323	1035.961357850575	907.338240051892	185.019320834270	841.547401295461	1069.785093750152	749.581827126471	962.449568177959	838.186527919013	748.727278415044	
39	16.886000000000	660.468145461793	1000.855364758549	485.479372487473	815.595254794515	1440.526243408928	316.331442952594	925.712813010030	1369.266353791389	471.010648144519	843.541579882417	1428.186585130412	649.930621519102	796.212122089892	1493.406603824468	471.583305798328	890.964105771659	944.645752635535	598.964202128989	872.024817681991	960.447910138709	324.002810364175	939.435994415645	745.211452865605	571.615024474886	861.982248513987	633.429526652023	627.661481730795	940.312279588393	585.332857540490	546.134558827287	943.434632767432	498.087631566005	549.505968296663	931.900232309795	749.164621239734	353.660611715696	861.017730933858	627.350882865191	285.618789150457	955.883566854046	551.073719318921	343.472430300967	953.409463208352	461.628881835610	340.006742332016	880.217524593414	402.809238876232	337.977986461376	734.398592996218	371.651075742817	295.225019633693	710.778629618697	247.397089369344	355.730051501404	921.287225242061	408.587847411114	555.846095110759	856.391497188376	299.956325567415	615.310569770768	903.907270729652	208.910848886125	550.308872329755	778.143650935205	41.502301783976	514.799164650476	947.663341684971	96.958286090046	554.389377840935	859.810745460065	36.050256396147	591.325574962580	1067.781102459646	45.602165136214	584.297502868933	515.356970233383	203.941078565419	402.212152861869	565.318349512310	154.727507643743	318.984766315259	671.327193374848	148.722588207712	336.992871139053	734.166016664644	33.268732932359	303.888160409650	841.026299899564	1087.819378225874	192.785534517220	1019.131403910631	895.649992280261	187.567764164925	851.715136079975	1070.893686364966	751.982809991834	984.912709371434	846.084571547672	749.049110190168	
